<svg width="23" height="26" viewBox="0 0 23 26" fill="none" xmlns="http://www.w3.org/2000/svg">
<path fill-rule="evenodd" clip-rule="evenodd" d="M14.033 2.75177L14.032 11.1741H13.0508H4.91835H3.94224L3.94131 2.75904L4.91588 1.78556H13.0689L14.033 2.75177ZM21.6531 21.4594V12.6333C21.6531 12.6334 22.095 12.1917 22.095 12.1917V8.31044L19.7782 5.97588H17.4439V6.66679H19.5035L20.831 8.01565L20.1834 8.66092L20.1822 12.1894L20.6148 12.6184V21.022H18.6725V11.8386L18.0212 11.1809H15.6549V2.0835L13.746 0.175049H4.23558L2.32651 2.0835V24.0099H0.719971V25.6231H17.257V24.0099H15.6549V12.2352H17.6048V21.4209L18.2564 22.0784H21.0391L21.6531 21.4594Z" fill="#F5F5F1"/>
</svg>
